# MagicaVoxel @ Ephtracy

# group
o 

# material
mtllib tower1.mtl
usemtl palette

# normals
vn -1 0 0
vn 1 0 0
vn 0 0 1
vn 0 0 -1
vn 0 -1 0
vn 0 1 0

# texcoords
vt 0.970703 0.5
vt 0.986328 0.5

# verts
v -0.9 0.4 1
v -0.9 0.4 -0.8
v -0.9 0.5 1
v -0.9 0.5 -0.8
v -0.9 1 1
v -0.9 1 0.6
v -0.9 1.1 1
v -0.9 1.1 0.6
v -0.9 1.2 0.4
v -0.9 1.2 0.0999999
v -0.9 1.3 0.4
v -0.9 1.3 0.2
v -0.9 1.4 0.0999999
v -0.9 1.4 -0.8
v -0.9 1.5 0.2
v -0.9 1.5 -0.8
v -0.5 0 0.6
v -0.5 0 -0.4
v -0.5 0.4 0.6
v -0.5 0.4 -0.4
v -0.5 0.5 0.6
v -0.5 0.5 -0.4
v -0.5 1 0.6
v -0.5 1.1 0.6
v -0.5 1.2 0.4
v -0.5 1.2 0.0999999
v -0.5 1.3 0.4
v -0.5 1.3 0.2
v -0.5 1.4 0.0999999
v -0.5 1.4 -0.4
v -0.5 1.5 0.2
v -0.5 1.5 -0.4
v -0.5 4 0.6
v -0.5 4 -0.4
v 0 0.7 1
v 0 0.7 0.6
v 0 0.8 1
v 0 0.8 0.6
v -0.1 1 1
v -0.1 1 0.6
v -0.1 1.1 1
v -0.1 1.1 0.6
v 0.5 0 0.6
v 0.5 0 -0.4
v 0.5 0.4 0.6
v 0.5 0.4 -0.4
v 0.5 0.5 0.6
v 0.5 0.5 -0.4
v 0.5 0.7 0.6
v 0.5 0.7 0.2
v 0.5 0.8 0.6
v 0.5 0.8 0.2
v 0.5 1.4 -0.1
v 0.5 1.4 -0.4
v 0.5 1.5 -0.1
v 0.5 1.5 -0.4
v 0.5 4 0.6
v 0.5 4 -0.4
v 0.9 0.4 1
v 0.9 0.4 -0.8
v 0.9 0.5 1
v 0.9 0.5 -0.8
v 0.9 0.7 1
v 0.9 0.7 0.2
v 0.9 0.8 1
v 0.9 0.8 0.2
v 0.9 1.4 -0.1
v 0.9 1.4 -0.8
v 0.9 1.5 -0.1
v 0.9 1.5 -0.8
v -0.9 0.4 1
v -0.9 0.5 1
v -0.9 1 1
v -0.9 1.1 1
v -0.1 1 1
v -0.1 1.1 1
v 0 0.7 1
v 0 0.8 1
v 0.9 0.4 1
v 0.9 0.5 1
v 0.9 0.7 1
v 0.9 0.8 1
v -0.5 0 0.6
v -0.5 0.4 0.6
v -0.5 0.5 0.6
v -0.5 1 0.6
v -0.5 1.1 0.6
v -0.5 4 0.6
v -0.1 1 0.6
v -0.1 1.1 0.6
v 0 0.7 0.6
v 0 0.8 0.6
v 0.5 0 0.6
v 0.5 0.4 0.6
v 0.5 0.5 0.6
v 0.5 0.7 0.6
v 0.5 0.8 0.6
v 0.5 4 0.6
v -0.9 1.2 0.4
v -0.9 1.3 0.4
v -0.5 1.2 0.4
v -0.5 1.3 0.4
v -0.9 1.3 0.2
v -0.9 1.5 0.2
v -0.5 1.3 0.2
v -0.5 1.5 0.2
v 0.5 1.4 -0.1
v 0.5 1.5 -0.1
v 0.9 1.4 -0.1
v 0.9 1.5 -0.1
v -0.9 1 0.6
v -0.9 1.1 0.6
v -0.5 1 0.6
v -0.5 1.1 0.6
v 0.5 0.7 0.2
v 0.5 0.8 0.2
v 0.9 0.7 0.2
v 0.9 0.8 0.2
v -0.9 1.2 0.0999999
v -0.9 1.4 0.0999999
v -0.5 1.2 0.0999999
v -0.5 1.4 0.0999999
v -0.5 0 -0.4
v -0.5 0.4 -0.4
v -0.5 0.5 -0.4
v -0.5 1.4 -0.4
v -0.5 1.5 -0.4
v -0.5 4 -0.4
v 0.5 0 -0.4
v 0.5 0.4 -0.4
v 0.5 0.5 -0.4
v 0.5 1.4 -0.4
v 0.5 1.5 -0.4
v 0.5 4 -0.4
v -0.9 0.4 -0.8
v -0.9 0.5 -0.8
v -0.9 1.4 -0.8
v -0.9 1.5 -0.8
v 0.9 0.4 -0.8
v 0.9 0.5 -0.8
v 0.9 1.4 -0.8
v 0.9 1.5 -0.8
v -0.5 0 0.6
v 0.5 0 0.6
v -0.5 0 -0.4
v 0.5 0 -0.4
v -0.9 0.4 1
v 0.9 0.4 1
v -0.5 0.4 0.6
v 0.5 0.4 0.6
v -0.5 0.4 -0.4
v 0.5 0.4 -0.4
v -0.9 0.4 -0.8
v 0.9 0.4 -0.8
v 0 0.7 1
v 0.9 0.7 1
v 0 0.7 0.6
v 0.5 0.7 0.6
v 0.5 0.7 0.2
v 0.9 0.7 0.2
v -0.9 1 1
v -0.1 1 1
v -0.9 1 0.6
v -0.5 1 0.6
v -0.1 1 0.6
v -0.9 1.2 0.4
v -0.5 1.2 0.4
v -0.9 1.2 0.0999999
v -0.5 1.2 0.0999999
v -0.9 1.4 0.0999999
v -0.5 1.4 0.0999999
v 0.5 1.4 -0.1
v 0.9 1.4 -0.1
v -0.5 1.4 -0.4
v 0.5 1.4 -0.4
v -0.9 1.4 -0.8
v 0.9 1.4 -0.8
v -0.9 0.5 1
v 0.9 0.5 1
v -0.5 0.5 0.6
v 0.5 0.5 0.6
v -0.5 0.5 -0.4
v 0.5 0.5 -0.4
v -0.9 0.5 -0.8
v 0.9 0.5 -0.8
v 0 0.8 1
v 0.9 0.8 1
v 0 0.8 0.6
v 0.5 0.8 0.6
v 0.5 0.8 0.2
v 0.9 0.8 0.2
v -0.9 1.1 1
v -0.1 1.1 1
v -0.9 1.1 0.6
v -0.5 1.1 0.6
v -0.1 1.1 0.6
v -0.9 1.3 0.4
v -0.5 1.3 0.4
v -0.9 1.3 0.2
v -0.5 1.3 0.2
v -0.9 1.5 0.2
v -0.5 1.5 0.2
v 0.5 1.5 -0.1
v 0.9 1.5 -0.1
v -0.5 1.5 -0.4
v 0.5 1.5 -0.4
v -0.9 1.5 -0.8
v 0.9 1.5 -0.8
v -0.5 4 0.6
v 0.5 4 0.6
v -0.5 4 -0.4
v 0.5 4 -0.4

# faces
f 3/2/1 2/2/1 1/2/1
f 4/2/1 2/2/1 3/2/1
f 7/2/1 6/2/1 5/2/1
f 8/2/1 6/2/1 7/2/1
f 11/2/1 10/2/1 9/2/1
f 12/2/1 10/2/1 11/2/1
f 13/2/1 10/2/1 12/2/1
f 15/2/1 13/2/1 12/2/1
f 15/2/1 14/2/1 13/2/1
f 16/2/1 14/2/1 15/2/1
f 19/1/1 18/1/1 17/1/1
f 20/1/1 18/1/1 19/1/1
f 23/1/1 22/1/1 21/1/1
f 24/1/1 22/1/1 23/1/1
f 25/1/1 22/1/1 24/1/1
f 26/1/1 22/1/1 25/1/1
f 27/1/1 25/1/1 24/1/1
f 29/1/1 22/1/1 26/1/1
f 30/1/1 22/1/1 29/1/1
f 31/1/1 28/1/1 27/1/1
f 33/1/1 27/1/1 24/1/1
f 33/1/1 32/1/1 31/1/1
f 33/1/1 31/1/1 27/1/1
f 34/1/1 32/1/1 33/1/1
f 37/2/1 36/2/1 35/2/1
f 38/2/1 36/2/1 37/2/1
f 39/2/2 40/2/2 41/2/2
f 41/2/2 40/2/2 42/2/2
f 43/1/2 44/1/2 45/1/2
f 45/1/2 44/1/2 46/1/2
f 47/1/2 48/1/2 49/1/2
f 49/1/2 48/1/2 50/1/2
f 50/1/2 48/1/2 52/1/2
f 52/1/2 48/1/2 53/1/2
f 51/1/2 52/1/2 53/1/2
f 53/1/2 48/1/2 54/1/2
f 51/1/2 53/1/2 55/1/2
f 51/1/2 55/1/2 57/1/2
f 55/1/2 56/1/2 57/1/2
f 57/1/2 56/1/2 58/1/2
f 59/2/2 60/2/2 61/2/2
f 61/2/2 60/2/2 62/2/2
f 63/2/2 64/2/2 65/2/2
f 65/2/2 64/2/2 66/2/2
f 67/2/2 68/2/2 69/2/2
f 69/2/2 68/2/2 70/2/2
f 75/2/3 74/2/3 73/2/3
f 76/2/3 74/2/3 75/2/3
f 79/2/3 72/2/3 71/2/3
f 80/2/3 72/2/3 79/2/3
f 81/2/3 78/2/3 77/2/3
f 82/2/3 78/2/3 81/2/3
f 89/1/3 86/1/3 85/1/3
f 90/1/3 88/1/3 87/1/3
f 91/1/3 89/1/3 85/1/3
f 91/1/3 90/1/3 89/1/3
f 92/1/3 90/1/3 91/1/3
f 93/1/3 84/1/3 83/1/3
f 94/1/3 84/1/3 93/1/3
f 95/1/3 91/1/3 85/1/3
f 96/1/3 91/1/3 95/1/3
f 97/1/3 90/1/3 92/1/3
f 98/1/3 88/1/3 90/1/3
f 98/1/3 90/1/3 97/1/3
f 101/2/3 100/2/3 99/2/3
f 102/2/3 100/2/3 101/2/3
f 105/2/3 104/2/3 103/2/3
f 106/2/3 104/2/3 105/2/3
f 109/2/3 108/2/3 107/2/3
f 110/2/3 108/2/3 109/2/3
f 111/2/4 112/2/4 113/2/4
f 113/2/4 112/2/4 114/2/4
f 115/2/4 116/2/4 117/2/4
f 117/2/4 116/2/4 118/2/4
f 119/2/4 120/2/4 121/2/4
f 121/2/4 120/2/4 122/2/4
f 123/1/4 124/1/4 129/1/4
f 129/1/4 124/1/4 130/1/4
f 125/1/4 126/1/4 131/1/4
f 131/1/4 126/1/4 132/1/4
f 127/1/4 128/1/4 133/1/4
f 133/1/4 128/1/4 134/1/4
f 135/2/4 136/2/4 139/2/4
f 139/2/4 136/2/4 140/2/4
f 137/2/4 138/2/4 141/2/4
f 141/2/4 138/2/4 142/2/4
f 145/1/5 144/1/5 143/1/5
f 146/1/5 144/1/5 145/1/5
f 149/2/5 148/2/5 147/2/5
f 150/2/5 148/2/5 149/2/5
f 151/2/5 149/2/5 147/2/5
f 152/2/5 148/2/5 150/2/5
f 153/2/5 151/2/5 147/2/5
f 153/2/5 152/2/5 151/2/5
f 154/2/5 148/2/5 152/2/5
f 154/2/5 152/2/5 153/2/5
f 157/2/5 156/2/5 155/2/5
f 158/2/5 156/2/5 157/2/5
f 159/2/5 156/2/5 158/2/5
f 160/2/5 156/2/5 159/2/5
f 163/2/5 162/2/5 161/2/5
f 164/2/5 162/2/5 163/2/5
f 165/2/5 162/2/5 164/2/5
f 168/2/5 167/2/5 166/2/5
f 169/2/5 167/2/5 168/2/5
f 174/2/5 171/2/5 170/2/5
f 175/2/5 173/2/5 172/2/5
f 176/2/5 174/2/5 170/2/5
f 176/2/5 175/2/5 174/2/5
f 177/2/5 173/2/5 175/2/5
f 177/2/5 175/2/5 176/2/5
f 178/2/6 179/2/6 180/2/6
f 180/2/6 179/2/6 181/2/6
f 178/2/6 180/2/6 182/2/6
f 181/2/6 179/2/6 183/2/6
f 178/2/6 182/2/6 184/2/6
f 182/2/6 183/2/6 184/2/6
f 183/2/6 179/2/6 185/2/6
f 184/2/6 183/2/6 185/2/6
f 186/2/6 187/2/6 188/2/6
f 188/2/6 187/2/6 189/2/6
f 189/2/6 187/2/6 190/2/6
f 190/2/6 187/2/6 191/2/6
f 192/2/6 193/2/6 194/2/6
f 194/2/6 193/2/6 195/2/6
f 195/2/6 193/2/6 196/2/6
f 197/2/6 198/2/6 199/2/6
f 199/2/6 198/2/6 200/2/6
f 201/2/6 202/2/6 205/2/6
f 203/2/6 204/2/6 206/2/6
f 201/2/6 205/2/6 207/2/6
f 205/2/6 206/2/6 207/2/6
f 206/2/6 204/2/6 208/2/6
f 207/2/6 206/2/6 208/2/6
f 209/1/6 210/1/6 211/1/6
f 211/1/6 210/1/6 212/1/6
