# MagicaVoxel @ Ephtracy

# group
o 

# material
mtllib tower2.2.mtl
usemtl palette

# normals
vn -1 0 0
vn 1 0 0
vn 0 0 1
vn 0 0 -1
vn 0 -1 0
vn 0 1 0

# texcoords
vt 0.587891 0.5
vt 0.990234 0.5

# verts
v -0.9 0.4 1
v -0.9 0.4 -0.8
v -0.9 0.5 1
v -0.9 0.5 -0.8
v -0.9 1 1
v -0.9 1 -0.3
v -0.9 1.1 1
v -0.9 1.1 -0.3
v -0.9 1.3 -0.3
v -0.9 1.3 -0.8
v -0.9 1.4 -0.3
v -0.9 1.4 -0.8
v -0.5 0 0.6
v -0.5 0 -0.4
v -0.5 0.4 0.6
v -0.5 0.4 -0.4
v -0.5 0.5 0.6
v -0.5 0.5 -0.4
v -0.5 0.9 1
v -0.5 0.9 0.6
v -0.5 1 1
v -0.5 1 0.6
v -0.5 1 -0.3
v -0.5 1.1 0.6
v -0.5 1.1 -0.3
v -0.5 1.3 -0.3
v -0.5 1.3 -0.4
v -0.5 1.4 -0.3
v -0.5 1.4 -0.4
v -0.5 4 0.6
v -0.5 4 -0.4
v -0.4 0.8 1
v -0.4 0.8 0.6
v -0.4 0.9 1
v -0.4 0.9 0.6
v -0.3 0.7 1.1
v -0.3 0.7 0.6
v -0.3 0.8 1.1
v -0.3 0.8 1
v -0.3 0.8 0.6
v -0.4 1 1
v -0.4 1 0.6
v -0.4 1.1 1
v -0.4 1.1 0.6
v -0.3 0.9 1
v -0.3 0.9 0.6
v -0.3 1 1
v -0.3 1 0.6
v -0.2 0.8 1
v -0.2 0.8 0.6
v -0.2 0.9 1
v -0.2 0.9 0.6
v 0 0.7 1.1
v 0 0.7 0.6
v 0 0.8 1.1
v 0 0.8 0.6
v 0.5 0 0.6
v 0.5 0 -0.4
v 0.5 0.4 0.6
v 0.5 0.4 -0.4
v 0.5 0.5 0.6
v 0.5 0.5 -0.4
v 0.5 1.3 0.3
v 0.5 1.3 -0.4
v 0.5 1.4 0.3
v 0.5 1.4 -0.4
v 0.5 4 0.6
v 0.5 4 -0.4
v 0.9 0.4 1
v 0.9 0.4 -0.8
v 0.9 0.5 1
v 0.9 0.5 -0.8
v 0.9 1.3 0.3
v 0.9 1.3 -0.8
v 0.9 1.4 0.3
v 0.9 1.4 -0.8
v -0.3 0.7 1.1
v -0.3 0.8 1.1
v 0 0.7 1.1
v 0 0.8 1.1
v -0.9 0.4 1
v -0.9 0.5 1
v -0.9 1 1
v -0.9 1.1 1
v -0.5 0.9 1
v -0.5 1 1
v -0.4 0.8 1
v -0.4 0.9 1
v -0.4 1 1
v -0.4 1.1 1
v -0.3 0.8 1
v -0.3 0.9 1
v -0.3 1 1
v -0.2 0.8 1
v -0.2 0.9 1
v 0.9 0.4 1
v 0.9 0.5 1
v -0.5 0 0.6
v -0.5 0.4 0.6
v -0.5 0.5 0.6
v -0.5 0.9 0.6
v -0.5 1.1 0.6
v -0.5 4 0.6
v -0.4 0.8 0.6
v -0.4 0.9 0.6
v -0.4 1 0.6
v -0.4 1.1 0.6
v -0.3 0.7 0.6
v -0.3 0.8 0.6
v -0.3 0.9 0.6
v -0.3 1 0.6
v -0.2 0.8 0.6
v -0.2 0.9 0.6
v 0 0.7 0.6
v 0 0.8 0.6
v 0.5 0 0.6
v 0.5 0.4 0.6
v 0.5 0.5 0.6
v 0.5 4 0.6
v 0.5 1.3 0.3
v 0.5 1.4 0.3
v 0.9 1.3 0.3
v 0.9 1.4 0.3
v -0.9 1.3 -0.3
v -0.9 1.4 -0.3
v -0.5 1.3 -0.3
v -0.5 1.4 -0.3
v -0.9 1 -0.3
v -0.9 1.1 -0.3
v -0.5 1 -0.3
v -0.5 1.1 -0.3
v -0.5 0 -0.4
v -0.5 0.4 -0.4
v -0.5 0.5 -0.4
v -0.5 1.3 -0.4
v -0.5 1.4 -0.4
v -0.5 4 -0.4
v 0.5 0 -0.4
v 0.5 0.4 -0.4
v 0.5 0.5 -0.4
v 0.5 1.3 -0.4
v 0.5 1.4 -0.4
v 0.5 4 -0.4
v -0.9 0.4 -0.8
v -0.9 0.5 -0.8
v -0.9 1.3 -0.8
v -0.9 1.4 -0.8
v 0.9 0.4 -0.8
v 0.9 0.5 -0.8
v 0.9 1.3 -0.8
v 0.9 1.4 -0.8
v -0.5 0 0.6
v 0.5 0 0.6
v -0.5 0 -0.4
v 0.5 0 -0.4
v -0.9 0.4 1
v 0.9 0.4 1
v -0.5 0.4 0.6
v 0.5 0.4 0.6
v -0.5 0.4 -0.4
v 0.5 0.4 -0.4
v -0.9 0.4 -0.8
v 0.9 0.4 -0.8
v -0.3 0.7 1.1
v 0 0.7 1.1
v -0.3 0.7 0.6
v 0 0.7 0.6
v -0.4 0.8 1
v -0.3 0.8 1
v -0.4 0.8 0.6
v -0.3 0.8 0.6
v -0.5 0.9 1
v -0.4 0.9 1
v -0.5 0.9 0.6
v -0.4 0.9 0.6
v -0.9 1 1
v -0.5 1 1
v -0.5 1 0.6
v -0.9 1 -0.3
v -0.5 1 -0.3
v 0.5 1.3 0.3
v 0.9 1.3 0.3
v -0.9 1.3 -0.3
v -0.5 1.3 -0.3
v -0.5 1.3 -0.4
v 0.5 1.3 -0.4
v -0.9 1.3 -0.8
v 0.9 1.3 -0.8
v -0.9 0.5 1
v 0.9 0.5 1
v -0.5 0.5 0.6
v 0.5 0.5 0.6
v -0.5 0.5 -0.4
v 0.5 0.5 -0.4
v -0.9 0.5 -0.8
v 0.9 0.5 -0.8
v -0.3 0.8 1.1
v 0 0.8 1.1
v -0.3 0.8 1
v -0.2 0.8 1
v -0.2 0.8 0.6
v 0 0.8 0.6
v -0.3 0.9 1
v -0.2 0.9 1
v -0.3 0.9 0.6
v -0.2 0.9 0.6
v -0.4 1 1
v -0.3 1 1
v -0.4 1 0.6
v -0.3 1 0.6
v -0.9 1.1 1
v -0.4 1.1 1
v -0.5 1.1 0.6
v -0.4 1.1 0.6
v -0.9 1.1 -0.3
v -0.5 1.1 -0.3
v 0.5 1.4 0.3
v 0.9 1.4 0.3
v -0.9 1.4 -0.3
v -0.5 1.4 -0.3
v -0.5 1.4 -0.4
v 0.5 1.4 -0.4
v -0.9 1.4 -0.8
v 0.9 1.4 -0.8
v -0.5 4 0.6
v 0.5 4 0.6
v -0.5 4 -0.4
v 0.5 4 -0.4

# faces
f 3/2/1 2/2/1 1/2/1
f 4/2/1 2/2/1 3/2/1
f 7/2/1 6/2/1 5/2/1
f 8/2/1 6/2/1 7/2/1
f 11/2/1 10/2/1 9/2/1
f 12/2/1 10/2/1 11/2/1
f 15/1/1 14/1/1 13/1/1
f 16/1/1 14/1/1 15/1/1
f 20/1/1 18/1/1 17/1/1
f 21/2/1 20/2/1 19/2/1
f 22/1/1 18/1/1 20/1/1
f 22/2/1 20/2/1 21/2/1
f 23/1/1 18/1/1 22/1/1
f 25/1/1 18/1/1 23/1/1
f 26/1/1 18/1/1 25/1/1
f 26/1/1 25/1/1 24/1/1
f 27/1/1 18/1/1 26/1/1
f 28/1/1 26/1/1 24/1/1
f 30/1/1 28/1/1 24/1/1
f 30/1/1 29/1/1 28/1/1
f 31/1/1 29/1/1 30/1/1
f 34/2/1 33/2/1 32/2/1
f 35/2/1 33/2/1 34/2/1
f 38/2/1 37/2/1 36/2/1
f 39/2/1 37/2/1 38/2/1
f 40/2/1 37/2/1 39/2/1
f 41/2/2 42/2/2 43/2/2
f 43/2/2 42/2/2 44/2/2
f 45/2/2 46/2/2 47/2/2
f 47/2/2 46/2/2 48/2/2
f 49/2/2 50/2/2 51/2/2
f 51/2/2 50/2/2 52/2/2
f 53/2/2 54/2/2 55/2/2
f 55/2/2 54/2/2 56/2/2
f 57/1/2 58/1/2 59/1/2
f 59/1/2 58/1/2 60/1/2
f 61/1/2 62/1/2 63/1/2
f 63/1/2 62/1/2 64/1/2
f 61/1/2 63/1/2 65/1/2
f 61/1/2 65/1/2 67/1/2
f 65/1/2 66/1/2 67/1/2
f 67/1/2 66/1/2 68/1/2
f 69/2/2 70/2/2 71/2/2
f 71/2/2 70/2/2 72/2/2
f 73/2/2 74/2/2 75/2/2
f 75/2/2 74/2/2 76/2/2
f 79/2/3 78/2/3 77/2/3
f 80/2/3 78/2/3 79/2/3
f 86/2/3 84/2/3 83/2/3
f 88/2/3 86/2/3 85/2/3
f 89/2/3 84/2/3 86/2/3
f 89/2/3 86/2/3 88/2/3
f 90/2/3 84/2/3 89/2/3
f 91/2/3 88/2/3 87/2/3
f 91/2/3 89/2/3 88/2/3
f 92/2/3 89/2/3 91/2/3
f 93/2/3 89/2/3 92/2/3
f 94/2/3 92/2/3 91/2/3
f 95/2/3 92/2/3 94/2/3
f 96/2/3 82/2/3 81/2/3
f 97/2/3 82/2/3 96/2/3
f 104/1/3 101/1/3 100/1/3
f 105/1/3 101/1/3 104/1/3
f 107/1/3 103/1/3 102/1/3
f 108/1/3 104/1/3 100/1/3
f 109/1/3 104/1/3 108/1/3
f 111/1/3 107/1/3 106/1/3
f 113/1/3 111/1/3 110/1/3
f 114/1/3 108/1/3 100/1/3
f 115/1/3 113/1/3 112/1/3
f 116/1/3 99/1/3 98/1/3
f 117/1/3 99/1/3 116/1/3
f 118/1/3 115/1/3 114/1/3
f 118/1/3 114/1/3 100/1/3
f 119/1/3 107/1/3 111/1/3
f 119/1/3 115/1/3 118/1/3
f 119/1/3 103/1/3 107/1/3
f 119/1/3 113/1/3 115/1/3
f 119/1/3 111/1/3 113/1/3
f 122/2/3 121/2/3 120/2/3
f 123/2/3 121/2/3 122/2/3
f 126/2/3 125/2/3 124/2/3
f 127/2/3 125/2/3 126/2/3
f 128/2/4 129/2/4 130/2/4
f 130/2/4 129/2/4 131/2/4
f 132/1/4 133/1/4 138/1/4
f 138/1/4 133/1/4 139/1/4
f 134/1/4 135/1/4 140/1/4
f 140/1/4 135/1/4 141/1/4
f 136/1/4 137/1/4 142/1/4
f 142/1/4 137/1/4 143/1/4
f 144/2/4 145/2/4 148/2/4
f 148/2/4 145/2/4 149/2/4
f 146/2/4 147/2/4 150/2/4
f 150/2/4 147/2/4 151/2/4
f 154/1/5 153/1/5 152/1/5
f 155/1/5 153/1/5 154/1/5
f 158/2/5 157/2/5 156/2/5
f 159/2/5 157/2/5 158/2/5
f 160/2/5 158/2/5 156/2/5
f 161/2/5 157/2/5 159/2/5
f 162/2/5 160/2/5 156/2/5
f 162/2/5 161/2/5 160/2/5
f 163/2/5 157/2/5 161/2/5
f 163/2/5 161/2/5 162/2/5
f 166/2/5 165/2/5 164/2/5
f 167/2/5 165/2/5 166/2/5
f 170/2/5 169/2/5 168/2/5
f 171/2/5 169/2/5 170/2/5
f 174/2/5 173/2/5 172/2/5
f 175/2/5 173/2/5 174/2/5
f 178/2/5 177/2/5 176/2/5
f 179/2/5 178/2/5 176/2/5
f 180/2/5 178/2/5 179/2/5
f 185/2/5 184/2/5 183/2/5
f 186/2/5 182/2/5 181/2/5
f 187/2/5 185/2/5 183/2/5
f 187/2/5 186/2/5 185/2/5
f 188/2/5 182/2/5 186/2/5
f 188/2/5 186/2/5 187/2/5
f 189/2/6 190/2/6 191/2/6
f 191/2/6 190/2/6 192/2/6
f 189/2/6 191/2/6 193/2/6
f 192/2/6 190/2/6 194/2/6
f 189/2/6 193/2/6 195/2/6
f 193/2/6 194/2/6 195/2/6
f 194/2/6 190/2/6 196/2/6
f 195/2/6 194/2/6 196/2/6
f 197/2/6 198/2/6 199/2/6
f 199/2/6 198/2/6 200/2/6
f 200/2/6 198/2/6 201/2/6
f 201/2/6 198/2/6 202/2/6
f 203/2/6 204/2/6 205/2/6
f 205/2/6 204/2/6 206/2/6
f 207/2/6 208/2/6 209/2/6
f 209/2/6 208/2/6 210/2/6
f 211/2/6 212/2/6 213/2/6
f 213/2/6 212/2/6 214/2/6
f 211/2/6 213/2/6 215/2/6
f 215/2/6 213/2/6 216/2/6
f 219/2/6 220/2/6 221/2/6
f 217/2/6 218/2/6 222/2/6
f 219/2/6 221/2/6 223/2/6
f 221/2/6 222/2/6 223/2/6
f 222/2/6 218/2/6 224/2/6
f 223/2/6 222/2/6 224/2/6
f 225/1/6 226/1/6 227/1/6
f 227/1/6 226/1/6 228/1/6
